<?xml version="1.0" standalone="no"?>
<!DOCTYPE svg PUBLIC "-//W3C//DTD SVG 20010904//EN"
 "http://www.w3.org/TR/2001/REC-SVG-20010904/DTD/svg10.dtd">
<svg version="1.0" xmlns="http://www.w3.org/2000/svg"
 width="609.000000pt" height="673.000000pt" viewBox="0 0 609.000000 673.000000"
 preserveAspectRatio="xMidYMid meet">
<metadata>
Created by potrace 1.16, written by Peter Selinger 2001-2019
</metadata>
<g transform="translate(0.000000,673.000000) scale(0.100000,-0.100000)"
fill="#000000" stroke="none">
<path d="M3895 6704 c-65 -22 -1860 -915 -2660 -1324 -104 -53 -425 -216 -712
-361 l-523 -263 0 -603 0 -604 154 -542 c85 -298 211 -740 280 -982 306 -1078
417 -1466 446 -1555 77 -238 156 -342 322 -425 l90 -45 340 0 c306 0 340 2
334 16 -3 9 -6 17 -6 19 0 2 -8 2 -17 0 -62 -12 -381 -26 -403 -17 -23 9 -20
10 30 20 30 7 125 17 210 23 154 11 155 12 385 89 126 43 835 292 1575 553
1944 687 2012 712 2086 767 76 57 173 201 160 236 -3 9 -1 12 4 9 6 -3 10 1
10 10 0 8 11 37 24 64 33 64 56 157 56 224 0 30 -13 106 -29 168 -16 63 -214
672 -441 1354 -226 682 -412 1252 -412 1268 1 15 -4 25 -9 22 -5 -4 -9 0 -9 8
0 9 14 17 36 21 21 5 34 12 31 19 -2 7 -35 104 -72 217 -37 113 -68 206 -69
207 -1 1 -19 -2 -40 -8 -27 -8 -42 -7 -49 0 -20 20 -76 12 -335 -48 -468 -109
-1454 -337 -2467 -571 -550 -127 -1003 -237 -1007 -243 -5 -8 -8 -6 -8 6 0 9
-3 17 -7 17 -5 0 -21 11 -38 25 -16 14 -22 22 -13 19 11 -4 66 20 145 61 71
37 265 140 433 228 168 87 431 226 585 307 154 81 334 175 400 210 66 34 208
109 315 165 107 56 285 150 395 207 865 454 886 466 947 540 20 24 62 69 92
102 45 47 56 65 56 92 0 26 -4 32 -15 28 -8 -4 -15 -11 -15 -17 0 -6 -3 -7 -6
-4 -4 4 -25 -16 -48 -44 -44 -54 -113 -101 -291 -194 -60 -32 -186 -99 -280
-148 -93 -49 -260 -137 -370 -195 -110 -57 -288 -151 -395 -207 -107 -56 -253
-133 -325 -170 -71 -38 -247 -130 -390 -205 -143 -76 -413 -217 -600 -315
-187 -98 -367 -192 -400 -210 -33 -18 -121 -64 -195 -103 l-135 -70 -30 24
c-25 20 -28 26 -15 34 8 6 137 74 285 152 149 77 313 163 365 191 52 27 190
99 305 159 116 61 251 132 300 158 50 26 158 82 240 125 83 43 155 81 160 85
6 4 105 56 220 115 116 59 233 120 260 135 28 15 169 89 315 165 146 76 301
157 345 180 44 23 130 68 190 100 541 285 575 306 575 351 0 33 -63 100 -124
131 -108 55 -152 65 -311 69 -141 4 -155 3 -230 -22z m260 -129 c105 -25 225
-55 269 -67 l78 -21 -232 -120 -233 -120 -286 68 c-157 37 -287 69 -289 70 -8
7 475 244 488 240 8 -2 101 -24 205 -50z m-635 -406 c118 -28 221 -54 229 -59
11 -6 -8 -20 -66 -49 -45 -22 -96 -49 -115 -59 -112 -63 -279 -142 -299 -142
-29 1 -566 124 -574 131 -3 4 106 62 241 131 l247 126 61 -15 c33 -7 158 -36
276 -64z m-837 -389 c149 -33 283 -62 296 -66 26 -6 25 -6 -363 -208 l-130
-67 -260 56 c-144 30 -286 61 -316 68 l-55 13 260 132 c143 72 268 131 278
131 9 1 140 -26 290 -59z m-821 -425 c171 -36 313 -67 315 -69 4 -4 -101 -61
-377 -204 l-155 -81 -270 55 c-148 30 -294 59 -324 65 -29 6 -49 15 -45 19 8
7 534 279 542 280 1 0 142 -29 314 -65z m3183 -162 c-16 -21 -85 -110 -154
-198 -68 -88 -125 -161 -125 -162 -2 -3 -540 -133 -542 -130 -1 1 70 94 159
206 l162 204 260 62 c143 33 262 60 264 58 2 -1 -9 -19 -24 -40z m-815 -160
c0 -4 -17 -27 -38 -52 -21 -25 -93 -114 -160 -198 -67 -84 -127 -155 -133
-159 -15 -9 -563 -143 -567 -139 -2 2 20 32 50 67 29 35 107 130 173 211 l120
146 135 32 c74 17 196 46 270 64 156 38 150 37 150 28z m-3225 -129 c154 -30
289 -58 299 -63 16 -6 -21 -29 -176 -109 l-196 -102 -88 60 c-48 33 -94 60
-102 60 -13 0 -365 -77 -457 -100 -39 -10 -205 6 -205 20 0 3 129 72 288 153
252 128 291 146 322 141 19 -3 161 -30 315 -60z m2228 -216 c-65 -79 -144
-174 -177 -213 -32 -38 -60 -71 -61 -73 -4 -4 -575 -142 -590 -142 -8 0 69 98
170 218 l185 217 278 66 c152 37 285 67 295 68 12 1 -22 -47 -100 -141z m-835
-96 c-22 -32 -291 -344 -333 -388 l-40 -42 -280 -67 c-154 -36 -293 -71 -309
-76 -16 -5 -31 -7 -33 -5 -2 2 85 106 193 230 l198 225 155 37 c86 20 217 51
291 69 164 41 176 42 158 17z m-1026 -279 c-33 -38 -69 -76 -81 -87 -23 -21
-20 -24 -45 61 l-15 52 82 20 c126 30 127 30 59 -46z m-159 -84 c30 -16 37
-28 37 -65 0 -40 -26 -72 -66 -80 -24 -4 -37 0 -62 21 -79 67 -1 172 91 124z
m3922 -100 c4 -11 5 -22 3 -24 -4 -4 -397 -111 -1178 -320 -627 -168 -924
-248 -1215 -326 -143 -39 -419 -113 -614 -165 -194 -52 -401 -107 -460 -124
-58 -16 -234 -64 -391 -106 -157 -41 -327 -87 -378 -101 -101 -26 -116 -26
-125 6 -6 24 -43 12 423 136 179 47 381 101 450 120 69 19 271 73 450 120 179
47 390 104 470 125 80 22 629 168 1220 326 591 157 1129 301 1195 319 145 40
142 40 150 14z m-4694 -82 c55 -42 44 -108 -22 -143 -77 -39 -151 81 -83 135
29 23 80 27 105 8z m617 -87 l-33 -39 -333 -82 c-183 -45 -335 -79 -337 -77
-3 2 14 22 38 45 41 39 46 41 267 93 124 29 266 63 315 75 120 31 121 31 83
-15z m4220 -277 c2 -14 -3 -23 -15 -27 -10 -3 -290 -82 -622 -176 -332 -94
-608 -173 -613 -176 -4 -3 -6 -9 -4 -12 2 -4 93 -286 201 -627 108 -341 203
-641 211 -667 l15 -47 42 13 c23 7 272 89 552 181 696 228 675 222 686 204 17
-27 8 -34 -74 -61 -171 -56 -3322 -1091 -3324 -1092 -1 -1 34 -122 77 -270 44
-148 80 -270 80 -272 0 -2 -7 -4 -15 -4 -15 0 -26 34 -120 355 -26 88 -51 164
-55 168 -4 5 -216 -60 -470 -143 -476 -156 -479 -157 -480 -110 0 9 14 21 33
27 69 24 1454 476 1485 485 17 5 32 14 32 19 0 6 -49 173 -109 372 -125 417
-124 414 -112 421 12 8 27 -35 101 -284 102 -345 153 -500 164 -500 15 0 1466
477 1473 483 3 4 -66 230 -152 504 -225 710 -255 806 -255 818 0 35 -27 31
-308 -50 -158 -45 -370 -106 -472 -134 -573 -161 -720 -205 -720 -215 0 -7 18
-72 40 -146 23 -74 39 -146 37 -160 l-3 -25 -13 30 c-7 17 -30 87 -52 158 -21
70 -40 131 -43 136 -3 4 -150 -34 -328 -85 -178 -50 -478 -136 -668 -189 -190
-53 -390 -110 -445 -126 -54 -15 -100 -27 -101 -26 -1 1 -5 14 -9 29 -5 20 -3
27 12 32 35 10 1060 299 1413 397 195 55 418 117 495 139 144 41 266 75 1510
425 402 113 766 216 810 229 94 28 109 28 113 -1z m-1255 -725 c14 -45 25 -84
22 -86 -2 -2 -15 18 -28 45 -23 45 -67 96 -67 78 0 -28 74 -242 88 -253 10 -7
12 -16 6 -21 -7 -7 -107 -41 -121 -41 -8 0 -2 29 8 32 7 2 -5 51 -31 133 -34
104 -44 125 -52 110 -6 -10 -8 -47 -5 -84 l5 -66 -29 84 c-16 47 -27 86 -25
88 4 5 178 61 191 62 6 1 23 -36 38 -81z m-249 -37 c11 -19 21 -52 22 -73 1
-21 7 -44 13 -52 6 -7 17 -31 25 -52 10 -26 15 -32 16 -19 l1 20 9 -20 c16
-37 11 -61 -15 -73 -59 -27 -62 -24 -116 107 -5 13 -12 21 -15 18 -9 -9 29
-119 43 -124 29 -11 9 -30 -49 -45 -60 -17 -87 -16 -59 1 19 12 -62 271 -85
271 -9 0 -14 5 -12 11 4 13 164 69 187 66 8 -1 24 -17 35 -36z m-221 -92 c30
-93 30 -95 -1 -48 -25 39 -52 69 -52 57 0 -2 16 -52 34 -113 19 -60 29 -101
23 -91 -23 36 -55 71 -61 65 -7 -6 22 -109 33 -122 4 -4 17 2 29 13 18 17 22
32 23 83 l1 62 25 -73 c14 -40 23 -75 22 -76 -9 -8 -204 -65 -208 -61 -2 3 1
11 7 18 16 18 -63 267 -84 267 -37 0 -7 21 59 41 39 12 81 25 92 30 32 12 39
6 58 -52z m-226 -46 c9 -14 18 -46 19 -70 1 -24 9 -52 17 -61 35 -38 49 -120
25 -140 -18 -14 -179 -62 -190 -56 -4 3 -8 1 -8 -5 0 -8 -170 -71 -193 -71 -5
0 -6 9 -2 19 9 31 -66 263 -87 269 -30 7 -20 21 23 32 23 6 53 16 66 21 23 9
25 7 20 -13 -9 -34 70 -279 87 -272 26 10 39 62 32 127 -7 74 5 61 30 -30 10
-38 22 -63 30 -63 20 0 18 9 -23 143 -28 88 -42 121 -56 125 -33 8 -12 26 59
48 97 31 129 30 151 -3z m-452 -253 c44 -71 86 -130 93 -130 31 0 7 -20 -43
-34 -30 -9 -62 -19 -71 -23 -14 -5 -16 -2 -11 17 8 29 -27 90 -51 90 -38 0
-46 -16 -34 -58 7 -22 19 -43 27 -46 25 -9 17 -22 -22 -34 -45 -14 -60 -6 -37
19 15 16 16 35 9 168 -6 140 -6 149 12 154 42 11 50 4 128 -123z m1326 -87 c7
-27 14 -50 14 -53 0 -3 9 -23 19 -45 22 -45 31 -112 22 -149 -8 -34 -39 -49
-98 -47 -31 0 -48 -4 -48 -11 0 -8 -3 -8 -9 -3 -15 17 -81 237 -81 270 0 44
29 66 97 75 32 4 61 8 64 9 4 0 13 -20 20 -46z m-192 -75 c28 -82 27 -89 -9
-40 -16 23 -38 46 -49 51 -24 13 -54 3 -47 -15 3 -7 10 -31 16 -53 15 -57 30
-51 31 12 l1 52 34 -100 c40 -116 42 -135 11 -80 -12 22 -30 41 -39 43 -16 3
-16 -2 3 -55 25 -72 31 -78 55 -52 15 16 19 36 19 85 0 35 1 64 2 64 4 0 43
-132 43 -145 0 -11 -132 -59 -186 -68 -10 -1 -23 -5 -29 -9 -19 -11 -118 -38
-124 -33 -2 3 0 10 6 16 13 13 -67 269 -84 269 -29 0 -10 19 34 34 63 22 70
20 70 -11 0 -16 17 -80 37 -145 30 -94 40 -116 54 -113 9 2 20 4 25 4 14 2 7
35 -30 150 -27 80 -43 115 -55 119 -33 8 -18 19 55 41 39 13 83 26 97 31 14 5
28 9 32 9 3 1 16 -27 27 -61z m-381 -86 c-8 -21 -7 -64 5 -162 9 -74 15 -135
13 -137 -1 -2 -16 -5 -32 -8 -28 -6 -31 -3 -103 124 -40 72 -79 131 -87 131
-34 0 -8 20 52 40 66 22 85 21 67 -2 -6 -9 4 -36 35 -88 l44 -75 -7 70 c-7 72
-18 105 -35 105 -21 0 -9 19 18 28 36 12 42 7 30 -26z m-229 -71 c41 -41 81
-149 81 -219 0 -49 -46 -92 -98 -92 -33 0 -45 6 -71 35 -33 38 -71 146 -71
202 0 76 108 125 159 74z m-209 -57 c-16 -18 65 -264 86 -264 32 0 11 -19 -38
-36 -29 -9 -59 -19 -67 -22 -10 -4 -12 2 -7 24 4 19 -2 53 -18 99 -27 77 -31
59 -12 -50 14 -75 13 -79 -21 -89 -19 -6 -27 5 -74 93 -29 55 -54 99 -56 97
-2 -1 9 -37 23 -79 17 -50 35 -84 51 -97 30 -23 30 -23 -16 -39 -41 -13 -45
-11 -30 21 9 21 5 45 -26 146 -28 88 -41 119 -51 115 -8 -3 -14 1 -14 9 0 12
68 38 99 38 5 0 28 -33 51 -72 35 -62 41 -68 36 -39 -4 19 -9 58 -12 87 l-7
52 49 14 c54 16 71 14 54 -8z"/>
</g>
</svg>
